<?xml version="1.0" encoding="UTF-8"?>
<svg id="Layer_2" data-name="Layer 2" xmlns="http://www.w3.org/2000/svg" viewBox="0 0 415.12 379.86">
  <defs>
    <style>
      .cls-1 {
        fill: none;
        stroke: #344c60;
        stroke-linecap: round;
        stroke-linejoin: round;
        stroke-width: 15px;
      }
    </style>
  </defs>
  <g id="Icons">
    <path class="cls-1" d="m342.45,105.88h-10.33c-6.1-36.05-37.46-63.52-75.25-63.52-9.39,0-18.39,1.71-26.7,4.81-14.37-23.77-40.46-39.67-70.27-39.67-45.31,0-82.05,36.73-82.05,82.05,0,5.59.56,11.05,1.63,16.33h-6.82c-35.99,0-65.17,29.18-65.17,65.17s29.18,65.17,65.17,65.17h269.78c35.99,0,65.17-29.18,65.17-65.17s-29.18-65.17-65.17-65.17Z"/>
    <line class="cls-1" x1="93.33" y1="275.45" x2="63.06" y2="362.36"/>
    <line class="cls-1" x1="150.46" y1="285.45" x2="120.2" y2="372.36"/>
    <line class="cls-1" x1="207.6" y1="275.45" x2="177.33" y2="362.36"/>
    <line class="cls-1" x1="321.88" y1="275.45" x2="291.61" y2="362.36"/>
    <line class="cls-1" x1="264.74" y1="285.45" x2="234.47" y2="372.36"/>
  </g>
</svg>