<?xml version="1.0" encoding="UTF-8"?>
<svg id="Layer_2" data-name="Layer 2" xmlns="http://www.w3.org/2000/svg" viewBox="0 0 124.09 124.09">
  <defs>
    <style>
      .cls-1 {
        fill: #f1f2f2;
      }
    </style>
  </defs>
  <g id="Layer_2-2" data-name="Layer 2">
    <path class="cls-1" d="m62.04,0C27.78,0,0,27.78,0,62.04s27.78,62.04,62.04,62.04,62.04-27.78,62.04-62.04S96.31,0,62.04,0Zm42.95,77.81c-.49,1.79-.9,3.1-1.23,3.93-.33.83-.88,1.56-1.66,2.19-.78.63-1.88.94-3.31.94-1.34,0-2.42-.3-3.23-.91s-1.37-1.29-1.69-2.05c-.32-.76-.76-2.06-1.33-3.91l-7.03-23.6-7.12,23.6c-.55,1.79-.99,3.07-1.32,3.85-.33.78-.89,1.48-1.7,2.09-.81.62-1.89.93-3.23.93-1.09,0-1.98-.18-2.68-.55-.7-.37-1.27-.89-1.71-1.56s-.79-1.47-1.07-2.39c-.28-.92-.52-1.78-.74-2.56l-4.02-14.71-3.84,14.05c-.49,1.79-.9,3.1-1.23,3.93-.33.83-.88,1.56-1.66,2.19-.78.63-1.88.94-3.31.94-1.34,0-2.42-.3-3.23-.91s-1.37-1.29-1.69-2.05c-.32-.76-.76-2.06-1.33-3.91l-7.03-23.6-7.12,23.6c-.55,1.79-.99,3.07-1.32,3.85-.33.78-.89,1.48-1.7,2.09-.81.62-1.89.93-3.23.93-1.09,0-1.98-.18-2.68-.55-.7-.37-1.27-.89-1.71-1.56s-.79-1.47-1.07-2.39c-.28-.92-.52-1.78-.74-2.56l-7.24-26.5c-.44-1.54-.65-2.71-.65-3.52,0-1.02.4-1.88,1.19-2.58.79-.7,1.77-1.05,2.94-1.05,1.6,0,2.68.47,3.23,1.4.55.93,1.04,2.28,1.45,4.05l5.69,22.98,6.38-21.51c.47-1.65.9-2.9,1.27-3.76.38-.86.99-1.6,1.84-2.23.85-.63,2.01-.94,3.47-.94s2.63.33,3.45.98,1.39,1.37,1.71,2.13c.32.77.74,2.04,1.27,3.81l6.43,21.51,5.69-22.98c.28-1.2.54-2.14.79-2.82.25-.68.67-1.29,1.28-1.83.6-.54,1.48-.81,2.62-.81s2.12.34,2.92,1.03c.66.57,1.04,1.27,1.15,2.08.34.81.66,1.8.94,3l5.69,22.98,6.38-21.51c.47-1.65.9-2.9,1.27-3.76.38-.86.99-1.6,1.84-2.23.85-.63,2.01-.94,3.47-.94s2.63.33,3.45.98,1.39,1.37,1.71,2.13c.32.77.74,2.04,1.27,3.81l6.43,21.51,5.69-22.98c.28-1.2.54-2.14.79-2.82.25-.68.67-1.29,1.28-1.83.6-.54,1.48-.81,2.62-.81s2.12.34,2.92,1.03c.8.69,1.2,1.55,1.2,2.59,0,.73-.22,1.91-.65,3.52l-7.23,26.5Z"/>
  </g>
</svg>