<?xml version="1.0" encoding="UTF-8"?>
<svg id="Layer_2" data-name="Layer 2" xmlns="http://www.w3.org/2000/svg" viewBox="0 0 70.19 60.42">
  <defs>
    <style>
      .cls-1 {
        fill: #7cd7f7;
      }
    </style>
  </defs>
  <g id="Icons">
    <path class="cls-1" d="m62.89,58.68c3.01-3.21,5.45-6.97,7.14-11.11.65-1.6-.74-3.26-2.44-2.97-3.89.67-7.99.73-12.21.03-15.19-2.52-27.29-14.62-29.81-29.81-.7-4.22-.64-8.32.03-12.21.29-1.7-1.38-3.09-2.97-2.44C9.35,5.59,0,18.61,0,33.83c0,9.61,3.73,18.34,9.82,24.84,1.06,1.13,2.55,1.75,4.09,1.75h44.89c1.54,0,3.03-.62,4.08-1.74Z"/>
  </g>
</svg>