<?xml version="1.0" encoding="UTF-8"?>
<svg id="Layer_2" data-name="Layer 2" xmlns="http://www.w3.org/2000/svg" viewBox="0 0 102.24 47.95">
  <defs>
    <style>
      .cls-1 {
        fill: #629ab3;
      }

      .cls-2 {
        fill: #81bcd9;
      }
    </style>
  </defs>
  <g id="Icons">
    <g>
      <path class="cls-1" d="m30.04,47.95h59.6c6.95,0,12.6-5.78,12.6-12.89s-5.65-12.89-12.6-12.89h-.25c-.64,0-1.21-.41-1.42-1.01l-.11-.31c-1.25-5.51-6.19-9.26-11.81-8.8-.83.07-1.64.25-2.43.5h0c-.67.21-1.41-.07-1.76-.68l-.06-.11C67.58,4.51,59.86,0,51.63,0c-.79,0-1.63.06-2.66.18h0c-10.23,1.22-18.61,9.29-20.39,19.62l-.02.13c-.1.61-.57,1.09-1.17,1.22l-.11.02c-6.16,1.33-10.47,6.77-10.47,13.23s4.31,13.54,13.24,13.54Z"/>
      <path class="cls-2" d="m13.8,34.41c0-7.3,4.53-13.54,11.21-15.72.47-.15.82-.53.93-1.01.91-3.86,2.66-7.39,5.02-10.41.45-.58.13-1.44-.59-1.59-1.09-.21-2.21-.32-3.34-.32-.61,0-1.27.04-2.07.14-7.94.95-14.45,7.21-15.83,15.23l-.02.1c-.08.47-.44.85-.91.95l-.08.02C3.34,22.84,0,27.06,0,32.08s3.34,10.51,10.28,10.51h4c.71,0,1.19-.73.91-1.38-.92-2.17-1.39-4.5-1.39-6.79Z"/>
    </g>
  </g>
</svg>