<?xml version="1.0" encoding="UTF-8"?>
<svg id="Layer_2" data-name="Layer 2" xmlns="http://www.w3.org/2000/svg" viewBox="0 0 63.96 66.99">
  <defs>
    <style>
      .cls-1 {
        fill: #ffbf00;
      }
    </style>
  </defs>
  <g id="Icons">
    <g>
      <circle class="cls-1" cx="31.98" cy="33.5" r="17.11" transform="translate(-14.22 30.26) rotate(-42.33)"/>
      <path class="cls-1" d="m31.98,9.98c-1.38,0-2.5-1.12-2.5-2.5V2.5c0-1.38,1.12-2.5,2.5-2.5s2.5,1.12,2.5,2.5v4.98c0,1.38-1.12,2.5-2.5,2.5Z"/>
      <path class="cls-1" d="m16.69,14.95c-.77,0-1.54-.36-2.02-1.03l-2.93-4.03c-.81-1.12-.56-2.68.55-3.49,1.12-.81,2.68-.56,3.49.55l2.93,4.03c.81,1.12.56,2.68-.55,3.49-.44.32-.96.48-1.47.48Z"/>
      <path class="cls-1" d="m7.24,27.96c-.26,0-.52-.04-.77-.12l-4.74-1.54c-1.31-.43-2.03-1.84-1.61-3.15.43-1.31,1.84-2.03,3.15-1.61l4.74,1.54c1.31.43,2.03,1.84,1.6,3.15-.34,1.06-1.32,1.73-2.38,1.73Z"/>
      <path class="cls-1" d="m2.5,45.58c-1.05,0-2.03-.67-2.38-1.73-.43-1.31.29-2.72,1.61-3.15l4.74-1.54c1.31-.43,2.72.29,3.15,1.6.43,1.31-.29,2.72-1.6,3.15l-4.74,1.54c-.26.08-.52.12-.77.12Z"/>
      <path class="cls-1" d="m13.76,61.07c-.51,0-1.02-.16-1.47-.48-1.12-.81-1.36-2.38-.55-3.49l2.93-4.03c.81-1.12,2.38-1.36,3.49-.55,1.12.81,1.36,2.38.55,3.49l-2.93,4.03c-.49.67-1.25,1.03-2.02,1.03Z"/>
      <path class="cls-1" d="m31.98,66.99c-1.38,0-2.5-1.12-2.5-2.5v-4.98c0-1.38,1.12-2.5,2.5-2.5s2.5,1.12,2.5,2.5v4.98c0,1.38-1.12,2.5-2.5,2.5Z"/>
      <path class="cls-1" d="m50.2,61.07c-.77,0-1.54-.36-2.02-1.03l-2.93-4.03c-.81-1.12-.56-2.68.55-3.49,1.12-.81,2.68-.56,3.49.55l2.93,4.03c.81,1.12.56,2.68-.55,3.49-.44.32-.96.48-1.47.48Z"/>
      <path class="cls-1" d="m61.46,45.58c-.26,0-.52-.04-.77-.12l-4.74-1.54c-1.31-.43-2.03-1.84-1.6-3.15.43-1.31,1.83-2.03,3.15-1.6l4.74,1.54c1.31.43,2.03,1.84,1.6,3.15-.34,1.06-1.32,1.73-2.38,1.73Z"/>
      <path class="cls-1" d="m56.72,27.96c-1.05,0-2.03-.67-2.38-1.73-.43-1.31.29-2.72,1.6-3.15l4.74-1.54c1.31-.43,2.72.29,3.15,1.61.43,1.31-.29,2.72-1.6,3.15l-4.74,1.54c-.26.08-.52.12-.77.12Z"/>
      <path class="cls-1" d="m47.27,14.95c-.51,0-1.02-.16-1.47-.48-1.12-.81-1.36-2.38-.55-3.49l2.93-4.03c.81-1.12,2.38-1.36,3.49-.55,1.12.81,1.36,2.38.55,3.49l-2.93,4.03c-.49.67-1.25,1.03-2.02,1.03Z"/>
    </g>
  </g>
</svg>